<?xml version="1.0" encoding="UTF-8" standalone="no"?>
<!DOCTYPE svg PUBLIC "-//W3C//DTD SVG 1.1//EN"
 "http://www.w3.org/Graphics/SVG/1.1/DTD/svg11.dtd">
<!-- Generated by graphviz version 2.38.0 (20140413.2041)
 -->
<!-- Title: test Pages: 1 -->
<svg width="268pt" height="218pt"
 viewBox="0.00 0.00 268.17 218.00" xmlns="http://www.w3.org/2000/svg" xmlns:xlink="http://www.w3.org/1999/xlink">
<g id="graph0" class="graph" transform="scale(1 1) rotate(0) translate(4 214)">
<title>test</title>
<!-- a -->
<g id="node1" class="node"><title>a</title>
<ellipse fill="none" stroke="black" cx="48.1714" cy="-192" rx="27" ry="18"/>
<text text-anchor="middle" x="48.1714" y="-188.3" font-family="Times,serif" font-size="14.00">a</text>
</g>
<!-- b -->
<g id="node2" class="node"><title>b</title>
<ellipse fill="none" stroke="black" cx="48.1714" cy="-105" rx="27" ry="18"/>
<text text-anchor="middle" x="48.1714" y="-101.3" font-family="Times,serif" font-size="14.00">b</text>
</g>
<!-- a&#45;&gt;b -->
<g id="edge1" class="edge"><title>a&#45;&gt;b</title>
<path fill="none" stroke="black" d="M27.0661,-180.702C17.6145,-174.874 7.43032,-166.609 2.17143,-156 -4.27438,-142.996 6.1034,-130.942 18.6213,-121.928"/>
<polygon fill="black" stroke="black" points="20.5358,-124.858 27.0011,-116.465 16.7127,-118.994 20.5358,-124.858"/>
<text text-anchor="middle" x="37.6714" y="-144.8" font-family="Times,serif" font-size="14.00">owl:sameAs</text>
</g>
<!-- b&#45;&gt;a -->
<g id="edge2" class="edge"><title>b&#45;&gt;a</title>
<path fill="none" stroke="black" d="M62.4973,-120.805C70.1045,-130.497 77.1402,-143.615 73.1714,-156 71.8639,-160.08 69.8868,-164.089 67.6058,-167.854"/>
<polygon fill="black" stroke="black" points="64.7038,-165.897 61.9042,-176.116 70.4649,-169.874 64.7038,-165.897"/>
<text text-anchor="middle" x="110.671" y="-144.8" font-family="Times,serif" font-size="14.00">owl:sameAs</text>
</g>
<!-- d -->
<g id="node3" class="node"><title>d</title>
<ellipse fill="none" stroke="black" cx="189.171" cy="-192" rx="27" ry="18"/>
<text text-anchor="middle" x="189.171" y="-188.3" font-family="Times,serif" font-size="14.00">d</text>
</g>
<!-- e -->
<g id="node4" class="node"><title>e</title>
<ellipse fill="none" stroke="black" cx="189.171" cy="-105" rx="27" ry="18"/>
<text text-anchor="middle" x="189.171" y="-101.3" font-family="Times,serif" font-size="14.00">e</text>
</g>
<!-- d&#45;&gt;e -->
<g id="edge3" class="edge"><title>d&#45;&gt;e</title>
<path fill="none" stroke="black" d="M189.171,-173.799C189.171,-162.163 189.171,-146.548 189.171,-133.237"/>
<polygon fill="black" stroke="black" points="192.672,-133.175 189.171,-123.175 185.672,-133.175 192.672,-133.175"/>
<text text-anchor="middle" x="224.671" y="-144.8" font-family="Times,serif" font-size="14.00">owl:sameAs</text>
</g>
<!-- f -->
<g id="node5" class="node"><title>f</title>
<ellipse fill="none" stroke="black" cx="189.171" cy="-18" rx="27" ry="18"/>
<text text-anchor="middle" x="189.171" y="-14.3" font-family="Times,serif" font-size="14.00">f</text>
</g>
<!-- e&#45;&gt;f -->
<g id="edge4" class="edge"><title>e&#45;&gt;f</title>
<path fill="none" stroke="black" d="M189.171,-86.799C189.171,-75.1626 189.171,-59.5479 189.171,-46.2368"/>
<polygon fill="black" stroke="black" points="192.672,-46.1754 189.171,-36.1754 185.672,-46.1755 192.672,-46.1754"/>
<text text-anchor="middle" x="224.671" y="-57.8" font-family="Times,serif" font-size="14.00">owl:sameAs</text>
</g>
</g>
</svg>
